<mxfile host="drawio-plugin" modified="2023-02-04T21:43:09.395Z" agent="5.0 (Windows NT 6.2; Win64; x64) AppleWebKit/537.36 (KHTML, like Gecko) Chrome/104.0.5112.102 Safari/537.36" etag="FxXKubeNxZl30DcBJ06S" version="20.5.3" type="embed"><diagram name="페이지-1" id="A44BbUMmwWd1O3oi5qYL"><mxGraphModel dx="1566" dy="1686" grid="0" gridSize="10" guides="1" tooltips="1" connect="1" arrows="1" fold="1" page="0" pageScale="1" pageWidth="827" pageHeight="1169" background="#182E3E" math="0" shadow="0"><root><mxCell id="0"/><mxCell id="1" parent="0"/><mxCell id="21" value="TroubleMaker" style="swimlane;fontStyle=0;align=center;verticalAlign=top;childLayout=stackLayout;horizontal=1;startSize=26;horizontalStack=0;resizeParent=1;resizeLast=0;collapsible=1;marginBottom=0;rounded=0;shadow=0;strokeWidth=1;fontFamily=Helvetica;labelBackgroundColor=none;fillColor=#d5e8d4;strokeColor=#82b366;fontSize=15;whiteSpace=wrap;" parent="1" vertex="1"><mxGeometry x="775" y="614.97" width="207" height="138" as="geometry"><mxRectangle x="130" y="380" width="160" height="26" as="alternateBounds"/></mxGeometry></mxCell><mxCell id="22" value="- _budget: Budget&#10;- _is_locked_out: boolean" style="text;align=left;verticalAlign=top;spacingLeft=4;spacingRight=4;overflow=hidden;rotatable=0;points=[[0,0.5],[1,0.5]];portConstraint=eastwest;fillColor=#d5e8d4;strokeColor=#82b366;fontSize=15;whiteSpace=wrap;" parent="21" vertex="1"><mxGeometry y="26" width="207" height="52" as="geometry"/></mxCell><mxCell id="23" value="" style="line;html=1;strokeWidth=1;align=left;verticalAlign=middle;spacingTop=-1;spacingLeft=3;spacingRight=3;rotatable=0;labelPosition=right;points=[];portConstraint=eastwest;fillColor=#d5e8d4;strokeColor=#82b366;fontSize=15;whiteSpace=wrap;" parent="21" vertex="1"><mxGeometry y="78" width="207" height="8" as="geometry"/></mxCell><mxCell id="24" value="Rebel" style="swimlane;fontStyle=0;align=center;verticalAlign=top;childLayout=stackLayout;horizontal=1;startSize=26;horizontalStack=0;resizeParent=1;resizeLast=0;collapsible=1;marginBottom=0;rounded=0;shadow=0;strokeWidth=1;fontFamily=Helvetica;labelBackgroundColor=none;fillColor=#d5e8d4;strokeColor=#82b366;fontSize=15;whiteSpace=wrap;" parent="1" vertex="1"><mxGeometry x="1009" y="614.97" width="206" height="138" as="geometry"><mxRectangle x="130" y="380" width="160" height="26" as="alternateBounds"/></mxGeometry></mxCell><mxCell id="25" value="- _budget: Budget&#10;- _is_locked_out: boolean" style="text;align=left;verticalAlign=top;spacingLeft=4;spacingRight=4;overflow=hidden;rotatable=0;points=[[0,0.5],[1,0.5]];portConstraint=eastwest;fillColor=#d5e8d4;strokeColor=#82b366;fontSize=15;whiteSpace=wrap;" parent="24" vertex="1"><mxGeometry y="26" width="206" height="69" as="geometry"/></mxCell><mxCell id="26" value="" style="line;html=1;strokeWidth=1;align=left;verticalAlign=middle;spacingTop=-1;spacingLeft=3;spacingRight=3;rotatable=0;labelPosition=right;points=[];portConstraint=eastwest;fillColor=#d5e8d4;strokeColor=#82b366;fontSize=15;whiteSpace=wrap;" parent="24" vertex="1"><mxGeometry y="95" width="206" height="8" as="geometry"/></mxCell><mxCell id="27" value="Account&#10;" style="swimlane;fontStyle=1;align=center;verticalAlign=top;childLayout=stackLayout;horizontal=1;startSize=26;horizontalStack=0;resizeParent=1;resizeParentMax=0;resizeLast=0;collapsible=1;marginBottom=0;fontFamily=Helvetica;labelBackgroundColor=none;fillColor=#d5e8d4;strokeColor=#82b366;fontSize=15;whiteSpace=wrap;" parent="1" vertex="1"><mxGeometry x="1060" y="-214" width="234" height="186" as="geometry"/></mxCell><mxCell id="28" value="- _user_list: List&#10;" style="text;align=left;verticalAlign=top;spacingLeft=4;spacingRight=4;overflow=hidden;rotatable=0;points=[[0,0.5],[1,0.5]];portConstraint=eastwest;fillColor=#d5e8d4;strokeColor=#82b366;fontSize=15;whiteSpace=wrap;" parent="27" vertex="1"><mxGeometry y="26" width="234" height="36" as="geometry"/></mxCell><mxCell id="29" value="" style="line;strokeWidth=1;align=left;verticalAlign=middle;spacingTop=-1;spacingLeft=3;spacingRight=3;rotatable=0;labelPosition=right;points=[];portConstraint=eastwest;fillColor=#d5e8d4;strokeColor=#82b366;fontSize=15;whiteSpace=wrap;" parent="27" vertex="1"><mxGeometry y="62" width="234" height="8" as="geometry"/></mxCell><mxCell id="30" value="+ user_login()&#10;+ user_register()&#10;+ view_budgets()&#10;+ record_transaction()&#10;+ view_transactions_by_budget()&#10;+ view_bank_account_details()" style="text;align=left;verticalAlign=top;spacingLeft=4;spacingRight=4;overflow=hidden;rotatable=0;points=[[0,0.5],[1,0.5]];portConstraint=eastwest;fillColor=#d5e8d4;strokeColor=#82b366;fontSize=15;whiteSpace=wrap;" parent="27" vertex="1"><mxGeometry y="70" width="234" height="116" as="geometry"/></mxCell><mxCell id="31" value="User" style="swimlane;fontStyle=1;align=center;verticalAlign=top;childLayout=stackLayout;horizontal=1;startSize=26;horizontalStack=0;resizeParent=1;resizeParentMax=0;resizeLast=0;collapsible=1;marginBottom=0;fontFamily=Helvetica;labelBackgroundColor=none;fillColor=#d5e8d4;strokeColor=#82b366;fontSize=15;whiteSpace=wrap;" parent="1" vertex="1"><mxGeometry x="750" y="40" width="259" height="483" as="geometry"/></mxCell><mxCell id="32" value="- _user_name: String&#10;- _age: int&#10;- _type: String&#10;- _bank: Bank&#10;- _transaction: Transaction&#10;- _budget: dict" style="text;align=left;verticalAlign=top;spacingLeft=4;spacingRight=4;overflow=hidden;rotatable=0;points=[[0,0.5],[1,0.5]];portConstraint=eastwest;fillColor=#d5e8d4;strokeColor=#82b366;fontSize=15;whiteSpace=wrap;" parent="31" vertex="1"><mxGeometry y="26" width="259" height="139" as="geometry"/></mxCell><mxCell id="33" value="" style="line;strokeWidth=1;align=left;verticalAlign=middle;spacingTop=-1;spacingLeft=3;spacingRight=3;rotatable=0;labelPosition=right;points=[];portConstraint=eastwest;fillColor=#d5e8d4;strokeColor=#82b366;fontSize=15;whiteSpace=wrap;" parent="31" vertex="1"><mxGeometry y="165" width="259" height="8" as="geometry"/></mxCell><mxCell id="34" value="+ get_user_name()&#10;+ get_user_age() &#10;+ get_user_type()&#10;+ get_user_bank_account_number()&#10;+ get_user_bank_balance()&#10;+ get_user_budget()&#10;&#10;+ add_new_user()&#10;+ remove_user()&#10;&#10;+ set_user_name()&#10;+ set_user_age() &#10;+ set_user_type()&#10;+ set _user_bank_account_number()&#10;+ set_user_bank_balance()" style="text;align=left;verticalAlign=top;spacingLeft=4;spacingRight=4;overflow=hidden;rotatable=0;points=[[0,0.5],[1,0.5]];portConstraint=eastwest;fillColor=#d5e8d4;strokeColor=#82b366;fontSize=15;whiteSpace=wrap;" parent="31" vertex="1"><mxGeometry y="173" width="259" height="310" as="geometry"/></mxCell><mxCell id="35" value="Budget" style="swimlane;fontStyle=1;align=center;verticalAlign=top;childLayout=stackLayout;horizontal=1;startSize=26;horizontalStack=0;resizeParent=1;resizeParentMax=0;resizeLast=0;collapsible=1;marginBottom=0;fontFamily=Helvetica;labelBackgroundColor=none;fillColor=#d5e8d4;strokeColor=#82b366;fontSize=15;whiteSpace=wrap;" parent="1" vertex="1"><mxGeometry x="1170" y="40" width="276" height="226" as="geometry"/></mxCell><mxCell id="36" value="- _total_budget: int&#10;- _warning_budget_limit: int" style="text;align=left;verticalAlign=top;spacingLeft=4;spacingRight=4;overflow=hidden;rotatable=0;points=[[0,0.5],[1,0.5]];portConstraint=eastwest;fillColor=#d5e8d4;strokeColor=#82b366;fontSize=15;whiteSpace=wrap;" parent="35" vertex="1"><mxGeometry y="26" width="276" height="58" as="geometry"/></mxCell><mxCell id="37" value="" style="line;strokeWidth=1;align=left;verticalAlign=middle;spacingTop=-1;spacingLeft=3;spacingRight=3;rotatable=0;labelPosition=right;points=[];portConstraint=eastwest;fillColor=#d5e8d4;strokeColor=#82b366;fontSize=15;whiteSpace=wrap;" parent="35" vertex="1"><mxGeometry y="84" width="276" height="8" as="geometry"/></mxCell><mxCell id="38" value="+ send_warning_message()&#10;+ lock_out()&#10;&#10;+ get_user_budget(String)&#10;+ get_user_warning_budget_limit()&#10;&#10;+ set_user_budget(String)&#10;+ set_user_warning_budget_limit()" style="text;align=left;verticalAlign=top;spacingLeft=4;spacingRight=4;overflow=hidden;rotatable=0;points=[[0,0.5],[1,0.5]];portConstraint=eastwest;fillColor=#d5e8d4;strokeColor=#82b366;fontSize=15;whiteSpace=wrap;" parent="35" vertex="1"><mxGeometry y="92" width="276" height="134" as="geometry"/></mxCell><mxCell id="39" value="FAM" style="swimlane;fontStyle=1;align=center;verticalAlign=top;childLayout=stackLayout;horizontal=1;startSize=26;horizontalStack=0;resizeParent=1;resizeParentMax=0;resizeLast=0;collapsible=1;marginBottom=0;fontFamily=Helvetica;labelBackgroundColor=none;fillColor=#d5e8d4;strokeColor=#82b366;fontSize=15;whiteSpace=wrap;" parent="1" vertex="1"><mxGeometry x="1420" y="-152.97" width="160" height="86" as="geometry"/></mxCell><mxCell id="40" value="- _account: Account" style="text;align=left;verticalAlign=top;spacingLeft=4;spacingRight=4;overflow=hidden;rotatable=0;points=[[0,0.5],[1,0.5]];portConstraint=eastwest;fillColor=#d5e8d4;strokeColor=#82b366;fontSize=15;whiteSpace=wrap;" parent="39" vertex="1"><mxGeometry y="26" width="160" height="26" as="geometry"/></mxCell><mxCell id="41" value="" style="line;strokeWidth=1;align=left;verticalAlign=middle;spacingTop=-1;spacingLeft=3;spacingRight=3;rotatable=0;labelPosition=right;points=[];portConstraint=eastwest;fillColor=#d5e8d4;strokeColor=#82b366;fontSize=15;whiteSpace=wrap;" parent="39" vertex="1"><mxGeometry y="52" width="160" height="8" as="geometry"/></mxCell><mxCell id="42" value="+ display_account_menu()" style="text;align=left;verticalAlign=top;spacingLeft=4;spacingRight=4;overflow=hidden;rotatable=0;points=[[0,0.5],[1,0.5]];portConstraint=eastwest;fillColor=#d5e8d4;strokeColor=#82b366;fontSize=15;whiteSpace=wrap;" parent="39" vertex="1"><mxGeometry y="60" width="160" height="26" as="geometry"/></mxCell><mxCell id="43" value="" style="endArrow=diamondThin;endFill=0;endSize=24;html=1;rounded=0;exitX=0.5;exitY=0;exitDx=0;exitDy=0;entryX=-0.023;entryY=0.225;entryDx=0;entryDy=0;entryPerimeter=0;fontFamily=Helvetica;fontColor=#FFFFFF;labelBackgroundColor=none;fillColor=#d5e8d4;strokeColor=#FFFF33;strokeWidth=6;fontSize=15;" parent="1" source="31" target="30" edge="1"><mxGeometry width="160" relative="1" as="geometry"><mxPoint x="870" y="-10" as="sourcePoint"/><mxPoint x="1030" y="-10" as="targetPoint"/><Array as="points"><mxPoint x="880" y="-118"/></Array></mxGeometry></mxCell><mxCell id="44" value="" style="html=1;verticalAlign=bottom;endArrow=block;rounded=0;exitX=0;exitY=0.5;exitDx=0;exitDy=0;fontFamily=Helvetica;fontColor=#FFFFFF;labelBackgroundColor=none;fillColor=#d5e8d4;strokeColor=#FFFF33;strokeWidth=6;fontSize=15;" parent="1" source="40" edge="1"><mxGeometry y="10" width="80" relative="1" as="geometry"><mxPoint x="1320" y="-90" as="sourcePoint"/><mxPoint x="1297" y="-114" as="targetPoint"/><mxPoint as="offset"/></mxGeometry></mxCell><mxCell id="45" value="Extends" style="endArrow=block;endSize=16;endFill=0;html=1;rounded=0;entryX=1.015;entryY=0.544;entryDx=0;entryDy=0;entryPerimeter=0;exitX=0.5;exitY=0;exitDx=0;exitDy=0;fontFamily=Helvetica;fontColor=#FFFFFF;labelBackgroundColor=none;fillColor=#d5e8d4;strokeColor=#FFFF33;strokeWidth=6;fontSize=15;" parent="1" source="24" target="34" edge="1"><mxGeometry x="0.0154" y="-44" width="160" relative="1" as="geometry"><mxPoint x="1040" y="416" as="sourcePoint"/><mxPoint x="1200" y="416" as="targetPoint"/><Array as="points"><mxPoint x="1112" y="382"/></Array><mxPoint y="1" as="offset"/></mxGeometry></mxCell><mxCell id="46" value="Extends" style="endArrow=block;endSize=16;endFill=0;html=1;rounded=0;entryX=-0.017;entryY=0.584;entryDx=0;entryDy=0;entryPerimeter=0;fontFamily=Helvetica;fontColor=#FFFFFF;labelBackgroundColor=none;fillColor=#d5e8d4;strokeColor=#FFFF33;strokeWidth=6;fontSize=15;" parent="1" target="34" edge="1"><mxGeometry x="-0.0577" y="-39" width="160" relative="1" as="geometry"><mxPoint x="640" y="613" as="sourcePoint"/><mxPoint x="655" y="400" as="targetPoint"/><Array as="points"><mxPoint x="645" y="394"/></Array><mxPoint as="offset"/></mxGeometry></mxCell><mxCell id="47" value="Extends" style="endArrow=block;endSize=16;endFill=0;html=1;rounded=0;exitX=0.5;exitY=0;exitDx=0;exitDy=0;fontFamily=Helvetica;fontColor=#FFFFFF;labelBackgroundColor=none;fillColor=#d5e8d4;strokeColor=#FFFF33;strokeWidth=6;fontSize=15;entryX=0.5;entryY=1;entryDx=0;entryDy=0;" parent="1" source="21" target="31" edge="1"><mxGeometry x="-0.0051" y="-44" width="160" relative="1" as="geometry"><mxPoint x="850" y="553.97" as="sourcePoint"/><mxPoint x="938" y="569" as="targetPoint"/><mxPoint as="offset"/></mxGeometry></mxCell><mxCell id="48" value="Transaction" style="swimlane;fontStyle=1;align=center;verticalAlign=top;childLayout=stackLayout;horizontal=1;startSize=26;horizontalStack=0;resizeParent=1;resizeParentMax=0;resizeLast=0;collapsible=1;marginBottom=0;fontFamily=Helvetica;labelBackgroundColor=none;fillColor=#d5e8d4;strokeColor=#82b366;fontSize=15;whiteSpace=wrap;" parent="1" vertex="1"><mxGeometry x="1057" y="-570" width="244" height="184" as="geometry"/></mxCell><mxCell id="49" value="- _time_stamp: Date&#10;- _dollar_amount: unsigned int&#10;- _budget_category: String&#10;- _shop_name: String" style="text;align=left;verticalAlign=top;spacingLeft=4;spacingRight=4;overflow=hidden;rotatable=0;points=[[0,0.5],[1,0.5]];portConstraint=eastwest;fillColor=#d5e8d4;strokeColor=#82b366;fontSize=15;whiteSpace=wrap;" parent="48" vertex="1"><mxGeometry y="26" width="244" height="82" as="geometry"/></mxCell><mxCell id="50" value="" style="line;strokeWidth=1;align=left;verticalAlign=middle;spacingTop=-1;spacingLeft=3;spacingRight=3;rotatable=0;labelPosition=right;points=[];portConstraint=eastwest;fillColor=#d5e8d4;strokeColor=#82b366;fontSize=15;whiteSpace=wrap;" parent="48" vertex="1"><mxGeometry y="108" width="244" height="8" as="geometry"/></mxCell><mxCell id="51" value="+ add_transaction()&#10;+ show_transaction_by_budget()&#10;+ show_bank_account_details()&#10;" style="text;align=left;verticalAlign=top;spacingLeft=4;spacingRight=4;overflow=hidden;rotatable=0;points=[[0,0.5],[1,0.5]];portConstraint=eastwest;fillColor=#d5e8d4;strokeColor=#82b366;fontSize=15;whiteSpace=wrap;" parent="48" vertex="1"><mxGeometry y="116" width="244" height="68" as="geometry"/></mxCell><mxCell id="52" value="Use" style="endArrow=open;endSize=12;dashed=1;html=1;rounded=0;exitX=0.5;exitY=0;exitDx=0;exitDy=0;entryX=0.513;entryY=1.006;entryDx=0;entryDy=0;entryPerimeter=0;fontFamily=Helvetica;fontColor=#FFFFFF;labelBackgroundColor=none;fillColor=#d5e8d4;strokeColor=#FFFF33;strokeWidth=6;fontSize=15;" parent="1" source="27" target="51" edge="1"><mxGeometry x="0.2209" y="-25" width="160" relative="1" as="geometry"><mxPoint x="1241" y="-280" as="sourcePoint"/><mxPoint x="1401" y="-280" as="targetPoint"/><mxPoint as="offset"/></mxGeometry></mxCell><mxCell id="53" value="Bank" style="swimlane;fontStyle=1;align=center;verticalAlign=top;childLayout=stackLayout;horizontal=1;startSize=26;horizontalStack=0;resizeParent=1;resizeParentMax=0;resizeLast=0;collapsible=1;marginBottom=0;fontFamily=Helvetica;labelBackgroundColor=none;fillColor=#d5e8d4;strokeColor=#82b366;fontSize=15;whiteSpace=wrap;" parent="1" vertex="1"><mxGeometry x="730" y="-550" width="195" height="154" as="geometry"/></mxCell><mxCell id="54" value="- _account_number: int&#10;- _balance: int" style="text;align=left;verticalAlign=top;spacingLeft=4;spacingRight=4;overflow=hidden;rotatable=0;points=[[0,0.5],[1,0.5]];portConstraint=eastwest;fillColor=#d5e8d4;strokeColor=#82b366;fontSize=15;whiteSpace=wrap;" parent="53" vertex="1"><mxGeometry y="26" width="195" height="44" as="geometry"/></mxCell><mxCell id="55" value="" style="line;strokeWidth=1;align=left;verticalAlign=middle;spacingTop=-1;spacingLeft=3;spacingRight=3;rotatable=0;labelPosition=right;points=[];portConstraint=eastwest;fillColor=#d5e8d4;strokeColor=#82b366;fontSize=15;whiteSpace=wrap;" parent="53" vertex="1"><mxGeometry y="70" width="195" height="8" as="geometry"/></mxCell><mxCell id="56" value="+ get_bank_name()&#10;+ get_bank_id()&#10;+ get_bank_address()" style="text;align=left;verticalAlign=top;spacingLeft=4;spacingRight=4;overflow=hidden;rotatable=0;points=[[0,0.5],[1,0.5]];portConstraint=eastwest;fillColor=#d5e8d4;strokeColor=#82b366;fontSize=15;whiteSpace=wrap;" parent="53" vertex="1"><mxGeometry y="78" width="195" height="76" as="geometry"/></mxCell><mxCell id="57" value="Use" style="endArrow=open;endSize=12;dashed=1;html=1;rounded=0;exitX=0.25;exitY=0;exitDx=0;exitDy=0;entryX=1;entryY=0.5;entryDx=0;entryDy=0;fontFamily=Helvetica;fontColor=#FFFFFF;labelBackgroundColor=none;fillColor=#d5e8d4;strokeColor=#FFFF33;strokeWidth=6;fontSize=15;" parent="1" source="27" target="56" edge="1"><mxGeometry x="0.0278" y="-33" width="160" relative="1" as="geometry"><mxPoint x="990.78" y="-378.40999999999997" as="sourcePoint"/><mxPoint x="989.9970000000001" y="-550.0020000000001" as="targetPoint"/><mxPoint y="-1" as="offset"/></mxGeometry></mxCell><mxCell id="58" value="" style="line;strokeWidth=1;align=left;verticalAlign=middle;spacingTop=-1;spacingLeft=3;spacingRight=3;rotatable=0;labelPosition=right;points=[];portConstraint=eastwest;fontFamily=Helvetica;labelBackgroundColor=none;fillColor=#d5e8d4;strokeColor=#82b366;fontSize=15;whiteSpace=wrap;" parent="1" vertex="1"><mxGeometry x="890" y="-482" width="160" height="8" as="geometry"/></mxCell><mxCell id="59" value="Test" style="swimlane;fontStyle=1;align=center;verticalAlign=top;childLayout=stackLayout;horizontal=1;startSize=26;horizontalStack=0;resizeParent=1;resizeParentMax=0;resizeLast=0;collapsible=1;marginBottom=0;fontFamily=Helvetica;labelBackgroundColor=none;fillColor=#d5e8d4;strokeColor=#82b366;fontSize=15;whiteSpace=wrap;" parent="1" vertex="1"><mxGeometry x="1420" y="-360" width="160" height="86" as="geometry"/></mxCell><mxCell id="60" value="TBU" style="text;align=left;verticalAlign=top;spacingLeft=4;spacingRight=4;overflow=hidden;rotatable=0;points=[[0,0.5],[1,0.5]];portConstraint=eastwest;fillColor=#d5e8d4;strokeColor=#82b366;fontSize=15;whiteSpace=wrap;" parent="59" vertex="1"><mxGeometry y="26" width="160" height="26" as="geometry"/></mxCell><mxCell id="61" value="" style="line;strokeWidth=1;align=left;verticalAlign=middle;spacingTop=-1;spacingLeft=3;spacingRight=3;rotatable=0;labelPosition=right;points=[];portConstraint=eastwest;fillColor=#d5e8d4;strokeColor=#82b366;fontSize=15;whiteSpace=wrap;" parent="59" vertex="1"><mxGeometry y="52" width="160" height="8" as="geometry"/></mxCell><mxCell id="62" value="+ load_test_user()" style="text;align=left;verticalAlign=top;spacingLeft=4;spacingRight=4;overflow=hidden;rotatable=0;points=[[0,0.5],[1,0.5]];portConstraint=eastwest;fillColor=#d5e8d4;strokeColor=#82b366;fontSize=15;whiteSpace=wrap;" parent="59" vertex="1"><mxGeometry y="60" width="160" height="26" as="geometry"/></mxCell><mxCell id="63" value="Use" style="endArrow=open;endSize=12;dashed=1;html=1;rounded=0;exitX=0.75;exitY=0;exitDx=0;exitDy=0;entryX=0;entryY=0.5;entryDx=0;entryDy=0;fontFamily=Helvetica;fontColor=#FFFFFF;labelBackgroundColor=none;fillColor=#d5e8d4;strokeColor=#FFFF33;strokeWidth=6;fontSize=15;" parent="1" source="27" target="59" edge="1"><mxGeometry x="-0.0424" y="-39" width="160" relative="1" as="geometry"><mxPoint x="1330.78" y="-204" as="sourcePoint"/><mxPoint x="1329.997" y="-375.5920000000001" as="targetPoint"/><mxPoint as="offset"/></mxGeometry></mxCell><mxCell id="64" value="Angel" style="swimlane;fontStyle=1;align=center;verticalAlign=top;childLayout=stackLayout;horizontal=1;startSize=26;horizontalStack=0;resizeParent=1;resizeParentMax=0;resizeLast=0;collapsible=1;marginBottom=0;fontFamily=Helvetica;labelBackgroundColor=none;fillColor=#d5e8d4;strokeColor=#82b366;fontSize=15;whiteSpace=wrap;" parent="1" vertex="1"><mxGeometry x="560" y="613.97" width="160" height="136" as="geometry"/></mxCell><mxCell id="65" value="- _budget: Budget" style="text;align=left;verticalAlign=top;spacingLeft=4;spacingRight=4;overflow=hidden;rotatable=0;points=[[0,0.5],[1,0.5]];portConstraint=eastwest;fillColor=#d5e8d4;strokeColor=#82b366;fontSize=15;whiteSpace=wrap;" parent="64" vertex="1"><mxGeometry y="26" width="160" height="26" as="geometry"/></mxCell><mxCell id="66" value="" style="line;strokeWidth=1;align=left;verticalAlign=middle;spacingTop=-1;spacingLeft=3;spacingRight=3;rotatable=0;labelPosition=right;points=[];portConstraint=eastwest;fillColor=#d5e8d4;strokeColor=#82b366;fontSize=15;whiteSpace=wrap;" parent="64" vertex="1"><mxGeometry y="52" width="160" height="8" as="geometry"/></mxCell><mxCell id="67" value="TBU" style="text;align=left;verticalAlign=top;spacingLeft=4;spacingRight=4;overflow=hidden;rotatable=0;points=[[0,0.5],[1,0.5]];portConstraint=eastwest;fillColor=#d5e8d4;strokeColor=#82b366;fontSize=15;whiteSpace=wrap;" parent="64" vertex="1"><mxGeometry y="60" width="160" height="76" as="geometry"/></mxCell><mxCell id="68" value="Use" style="endArrow=open;endSize=12;dashed=1;html=1;rounded=0;fontFamily=Helvetica;fontColor=#FFFFFF;labelBackgroundColor=none;fillColor=#d5e8d4;strokeColor=#FFFF33;strokeWidth=6;fontSize=15;" parent="1" edge="1"><mxGeometry x="0.0311" y="-39" width="160" relative="1" as="geometry"><mxPoint x="1009" y="130" as="sourcePoint"/><mxPoint x="1170" y="130" as="targetPoint"/><mxPoint x="1" as="offset"/></mxGeometry></mxCell><mxCell id="69" value="Use" style="endArrow=open;endSize=12;dashed=1;html=1;rounded=0;entryX=0.421;entryY=0.962;entryDx=0;entryDy=0;entryPerimeter=0;fontFamily=Helvetica;fontColor=#FFFFFF;labelBackgroundColor=none;fillColor=#d5e8d4;strokeColor=#FFFF33;strokeWidth=6;fontSize=15;" parent="1" target="56" edge="1"><mxGeometry x="0.0702" y="-31" width="160" relative="1" as="geometry"><mxPoint x="800" y="40" as="sourcePoint"/><mxPoint x="910" y="-214" as="targetPoint"/><mxPoint as="offset"/></mxGeometry></mxCell><mxCell id="70" value="Bank must check if it has enough balance for transaction" style="text;html=1;align=center;verticalAlign=middle;resizable=0;points=[];autosize=1;fontFamily=Helvetica;labelBackgroundColor=none;fillColor=#d5e8d4;strokeColor=#82b366;fontSize=15;" parent="1" vertex="1"><mxGeometry x="594" y="-589" width="394" height="30" as="geometry"/></mxCell><mxCell id="71" value="Use" style="endArrow=open;endSize=12;dashed=1;html=1;rounded=0;exitX=0;exitY=0.5;exitDx=0;exitDy=0;entryX=0.5;entryY=0;entryDx=0;entryDy=0;fontFamily=Helvetica;fontColor=#FFFFFF;labelBackgroundColor=none;fillColor=#d5e8d4;strokeColor=#FFFF33;strokeWidth=6;fontSize=15;" parent="1" source="32" target="48" edge="1"><mxGeometry x="-0.0018" y="-29" width="160" relative="1" as="geometry"><mxPoint x="590" y="-66.97" as="sourcePoint"/><mxPoint x="1170" y="-630" as="targetPoint"/><Array as="points"><mxPoint x="560" y="120"/><mxPoint x="560" y="-670"/><mxPoint x="1179" y="-670"/></Array><mxPoint y="-1" as="offset"/></mxGeometry></mxCell><mxCell id="72" value="record transaction goes into user, goes into bank (check the balance), if it has enough balance, then record transaction" style="text;html=1;align=center;verticalAlign=middle;resizable=0;points=[];autosize=1;fontFamily=Helvetica;labelBackgroundColor=none;fillColor=#fff2cc;strokeColor=#d6b656;fontSize=15;" parent="1" vertex="1"><mxGeometry x="828" y="-11" width="805" height="30" as="geometry"/></mxCell></root></mxGraphModel></diagram></mxfile>